<svg width="740" height="323" viewBox="0 0 740 323" fill="none" xmlns="http://www.w3.org/2000/svg">
<path d="M649.661 86.5311C683.825 86.5311 728.769 95.0554 728.769 134.522L728.758 135.286C728.278 151.343 712.804 158.731 698.201 158.732C680.222 158.732 675.275 140.343 639.316 140.343C629.429 140.343 620.436 146.17 620.436 156.934C620.437 196.4 740 154.245 740 245.29C740 301.355 692.353 322.434 641.56 322.434C605.601 322.434 556.603 304.944 556.603 267.717C556.603 247.537 565.597 234.976 583.576 234.976C610.098 234.976 606.502 267.267 650.553 267.267C663.586 267.267 680.221 260.989 680.221 246.638C680.22 231.388 654.6 226.459 643.362 225.56C598.41 220.625 560.657 200.445 560.657 157.839C560.657 107.609 605.159 86.5311 649.661 86.5311Z" fill="#AEA6F5"/>
<path d="M366.929 88.3208C389.856 88.3208 401.988 100.433 401.988 123.301C413.226 102.223 437.496 91.909 460.873 91.909C514.361 91.9091 539.983 120.612 539.983 176.228C539.983 191.478 538.631 204.931 538.631 219.732C538.631 256.959 543.578 262.338 543.578 283.864C543.578 306.74 530.539 320.643 507.169 320.643C485.594 320.643 472.554 308.081 472.554 286.111C472.554 261.895 475.25 239.469 475.25 215.246C475.25 191.022 472.554 157.39 440.642 157.39C415.922 157.39 400.186 173.089 400.186 198.654C400.186 240.81 403.332 258.307 403.332 285.212C403.332 307.189 389.848 321.542 366.922 321.542C348.042 321.542 331.415 306.74 331.415 287.902C331.415 267.273 330.513 226.829 330.513 184.224V126.889C330.513 102.672 341.301 88.3208 366.922 88.3208H366.929Z" fill="#AEA6F5"/>
<path fill-rule="evenodd" clip-rule="evenodd" d="M37.7532 5.34276C65.176 5.34278 75.0625 22.3836 75.0626 47.948C75.0626 60.9515 71.9177 89.6624 71.0169 108.943V108.95C86.3013 95.0473 113.717 90.5611 133.948 90.5611C151.875 90.5611 167.298 95.0658 180.095 102.885C192.802 88.4366 212.312 81.3369 231.237 81.3369C284.725 81.337 310.346 111.474 310.346 169.865C310.346 185.878 308.995 200.001 308.995 215.537C308.995 254.619 313.943 260.269 313.943 282.873C313.943 306.89 300.902 321.483 277.533 321.484C255.958 321.484 242.919 308.302 242.919 285.226C242.919 259.798 250.911 221.251 250.911 195.822C250.911 170.393 247.972 132.146 216.053 132.146C213.755 132.146 211.491 132.445 209.274 133.006C219.783 150.771 225.196 172.606 225.197 195.508C225.197 264.128 188.787 320.193 120.916 320.193C101.585 320.193 75.5138 313.917 64.726 295.978C61.13 309.43 45.8458 320.193 31.9129 320.193C12.1321 320.193 0 304.494 0 285.663V165.957C0 135.014 1.35083 78.0074 1.35084 47.0644C1.34369 23.7323 13.4756 5.34276 37.7532 5.34276ZM115.068 146.626C80.9037 146.626 63.8249 169.053 63.8248 201.792C63.8248 229.597 73.2615 261.446 106.975 261.446C147.882 261.446 157.768 226.908 157.768 196.414V196.408C157.768 169.495 143.835 146.626 115.068 146.626Z" fill="#AEA6F5"/>
<path d="M241.131 0C262.156 0.000117943 271.227 15.2223 271.227 34.5598C271.227 50.6019 262.57 76.1094 243.19 76.1094C221.75 76.1094 196.6 70.3455 196.6 44.0177C196.6 9.87209 208.561 0 241.131 0Z" fill="#AEA6F5"/>
</svg>
